#!OML:ASF H:\LiuWeirdWalks\Patient Classification 1\Patient 1\Session 1\male.ASF
:FULLY-SPECIFIED
:DEGREES
970
root 0.55221 18.0852 13.2843 0.148818 8.00086 18.6482
lowerback 9.16498 -1.47916 9.18427
upperback 0.778919 -0.471667 10.513
thorax -4.35438 -0.273945 6.07115
lowerneck -16.6287 0.451455 5.47577
upperneck 16.787 3.55461 -21.4705
head 8.55373 -0.060778 -7.9628
rclavicle -7.95139e-015 -1.74931e-013
rhumerus -28.9977 -28.7476 -17.001
rradius 35.0435
rwrist -5.51356
rhand -21.4956 -0.0701462
rfingers 7.12502
rthumb 4.89586 -29.9936
lclavicle -7.95139e-015 -1.74931e-013
lhumerus -29.3245 30.3776 17.3131
lradius 44.2236
lwrist 2.54814
lhand -15.0523 -0.804795
lfingers 7.12502
lthumb 11.1143 28.8809
rfemur -11.6847 3.95744 -2.90009
rtibia 38.415
rfoot -15.078 -25.2482
rtoes 0.435884
lfemur -9.42929 6.12052 -24.3471
ltibia 48.6285
lfoot 0.0271098 -5.54263
ltoes -17.8828
971
root 0.548241 18.084 13.3204 0.206109 8.03592 18.6865
lowerback 9.27944 -1.48355 9.16423
upperback 0.816035 -0.463807 10.5375
thorax -4.37934 -0.269204 6.1116
lowerneck -16.6428 0.414109 5.44342
upperneck 16.7926 3.50886 -21.4662
head 8.55058 -0.0853216 -7.96118
rclavicle 3.53837e-014 -9.54166e-015
rhumerus -29.0001 -28.8251 -16.994
rradius 35.0588
rwrist -5.52072
rhand -21.4905 -0.124349
rfingers 7.12502
rthumb 4.90073 -30.0477
lclavicle 3.53837e-014 -9.54166e-015
lhumerus -29.1905 30.2745 17.3479
lradius 44.1271
lwrist 2.61626
lhand -15.1239 -0.810911
lfingers 7.12502
lthumb 11.0452 28.8785
rfemur -11.6473 4.26052 -2.81238
rtibia 38.53
rfoot -15.0661 -25.7792
rtoes 0.546028
lfemur -9.68319 5.97958 -24.381
ltibia 48.298
lfoot 0.336207 -5.28082
ltoes -17.5521
972
root 0.544431 18.0821 13.3569 0.253213 8.06047 18.7138
lowerback 9.39117 -1.48477 9.14341
upperback 0.86231 -0.453555 10.5654
thorax -4.39298 -0.263031 6.15545
lowerneck -16.6677 0.381952 5.4166
upperneck 16.7825 3.4673 -21.4657
head 8.54522 -0.107722 -7.96092
rclavicle -9.14409e-015 5.40694e-014
rhumerus -28.9989 -28.9213 -16.9871
rradius 35.0725
rwrist -5.54104
rhand -21.4864 -0.183553
rfingers 7.12502
rthumb 4.90472 -30.1068
lclavicle -9.14409e-015 5.40694e-014
lhumerus -29.0314 29.9792 17.3772
lradius 43.9591
lwrist 2.68347
lhand -15.1724 -0.895538
lfingers 7.12502
lthumb 10.9985 28.7963
rfemur -11.6277 4.55133 -2.7179
rtibia 38.682
rfoot -15.0487 -26.268
rtoes 0.558492
lfemur -9.90082 5.83179 -24.4095
ltibia 47.8801
lfoot 0.857418 -5.05526
ltoes -17.1708
973
root 0.542036 18.0795 13.3946 0.286786 8.08079 18.7425
lowerback 9.49797 -1.48736 9.12501
upperback 0.909775 -0.446029 10.591
thorax -4.40246 -0.258225 6.19554
lowerneck -16.6537 0.354695 5.40538
upperneck 16.7302 3.42485 -21.483
head 8.51888 -0.127049 -7.96668
rclavicle -1.70955e-014 -2.54444e-014
rhumerus -29.0135 -28.9516 -16.9877
rradius 35.1132
rwrist -5.61355
rhand -21.4994 -0.229118
rfingers 7.12502
rthumb 4.89213 -30.1526
lclavicle -1.70955e-014 -2.54444e-014
lhumerus -28.9208 29.8491 17.4047
lradius 43.968
lwrist 2.84069
lhand -15.2894 -0.838522
lfingers 7.12502
lthumb 10.8856 28.8593
rfemur -11.612 4.78966 -2.64121
rtibia 38.8667
rfoot -15.0399 -26.6807
rtoes 0.471463
lfemur -10.0666 5.6759 -24.4522
ltibia 47.3692
lfoot 1.59986 -4.83287
ltoes -16.7505
974
root 0.540092 18.076 13.4326 0.313467 8.08502 18.7791
lowerback 9.59255 -1.48605 9.09201
upperback 0.969221 -0.439001 10.6147
thorax -4.39201 -0.253153 6.24063
lowerneck -16.6182 0.336066 5.4184
upperneck 16.6374 3.38574 -21.5219
head 8.47642 -0.142075 -7.98171
rclavicle -1.82882e-014 1.90833e-014
rhumerus -29.0079 -29.034 -16.9849
rradius 35.1261
rwrist -5.66135
rhand -21.508 -0.253171
rfingers 7.12502
rthumb 4.88385 -30.1769
lclavicle -1.82882e-014 1.90833e-014
lhumerus -28.7993 29.873 17.3774
lradius 43.8744
lwrist 2.69446
lhand -15.2833 -0.951611
lfingers 7.12502
lthumb 10.8915 28.7459
rfemur -11.618 4.98724 -2.58578
rtibia 39.0834
rfoot -15.0318 -27.0218
rtoes 0.308536
lfemur -10.1898 5.52439 -24.5136
ltibia 46.7646
lfoot 2.55131 -4.58855
ltoes -16.2507
975
root 0.538898 18.0719 13.4707 0.336187 8.08724 18.8167
lowerback 9.69306 -1.48962 9.05244
upperback 1.01481 -0.436239 10.6375
thorax -4.3995 -0.250435 6.28995
lowerneck -16.5322 0.314959 5.41494
upperneck 16.5464 3.34364 -21.5415
head 8.42367 -0.155204 -7.98539
rclavicle 1.43125e-014 -1.27222e-014
rhumerus -29.0091 -29.0503 -16.9908
rradius 35.1492
rwrist -5.72941
rhand -21.5159 -0.250817
rfingers 7.12502
rthumb 4.87624 -30.1747
lclavicle 1.43125e-014 -1.27222e-014
lhumerus -28.7004 29.7315 17.3209
lradius 43.7531
lwrist 2.54705
lhand -15.2467 -1.11836
lfingers 7.12502
lthumb 10.9268 28.5773
rfemur -11.6425 5.11774 -2.54587
rtibia 39.3296
rfoot -15.0258 -27.2878
rtoes 0.0876199
lfemur -10.2744 5.37347 -24.5881
ltibia 46.0671
lfoot 3.70368 -4.314
ltoes -15.6841
